<svg width="104" height="102" viewBox="0 0 104 102" fill="none" xmlns="http://www.w3.org/2000/svg">
<g opacity="0.9">
<path opacity="0.9" d="M94.9531 97.4973C94.9531 96.6067 95.2182 95.7362 95.7149 94.9957C96.2115 94.2553 96.9174 93.6782 97.7433 93.3374C98.5692 92.9966 99.478 92.9074 100.355 93.0812C101.231 93.2549 102.037 93.6837 102.669 94.3134C103.301 94.9431 103.732 95.7454 103.906 96.6189C104.08 97.4923 103.991 98.3976 103.649 99.2204C103.307 100.043 102.727 100.746 101.984 101.241C101.241 101.736 100.367 102 99.4729 102C98.2742 102 97.1246 101.526 96.2769 100.681C95.4293 99.8367 94.9531 98.6914 94.9531 97.4973V97.4973Z" fill="#FAECDA"/>
<path opacity="0.9" d="M95.3977 85.42C95.3977 84.6171 95.6367 83.8322 96.0845 83.1646C96.5323 82.497 97.1687 81.9766 97.9134 81.6694C98.658 81.3621 99.4774 81.2817 100.268 81.4384C101.058 81.595 101.784 81.9816 102.354 82.5494C102.924 83.1171 103.312 83.8405 103.47 84.628C103.627 85.4155 103.546 86.2318 103.238 86.9736C102.929 87.7154 102.407 88.3494 101.737 88.7955C101.067 89.2416 100.279 89.4797 99.4729 89.4797C98.9374 89.4806 98.4071 89.3763 97.9122 89.1726C97.4174 88.9689 96.9678 88.6699 96.5892 88.2928C96.2106 87.9156 95.9104 87.4677 95.706 86.9747C95.5015 86.4818 95.3968 85.9534 95.3977 85.42V85.42Z" fill="#FAECDA"/>
<path opacity="0.9" d="M99.4728 76.9594C101.474 76.9594 103.096 75.3434 103.096 73.35C103.096 71.3566 101.474 69.7406 99.4728 69.7406C97.4718 69.7406 95.8496 71.3566 95.8496 73.35C95.8496 75.3434 97.4718 76.9594 99.4728 76.9594Z" fill="#FAECDA"/>
<path opacity="0.9" d="M96.3162 61.2799C96.3162 60.655 96.5021 60.0442 96.8506 59.5247C97.199 59.0052 97.6943 58.6003 98.2738 58.3612C98.8532 58.1221 99.4909 58.0595 100.106 58.1814C100.721 58.3033 101.286 58.6042 101.73 59.046C102.173 59.4878 102.475 60.0507 102.598 60.6635C102.72 61.2763 102.657 61.9116 102.417 62.4888C102.177 63.0661 101.771 63.5594 101.249 63.9066C100.728 64.2537 100.115 64.439 99.4873 64.439C99.0709 64.439 98.6585 64.3573 98.2738 64.1985C97.889 64.0397 97.5394 63.807 97.245 63.5137C96.9505 63.2203 96.7169 62.8721 96.5575 62.4888C96.3982 62.1055 96.3162 61.6947 96.3162 61.2799Z" fill="#FAECDA"/>
<path opacity="0.9" d="M96.7537 49.2025C96.7537 48.6668 96.9131 48.143 97.2119 47.6976C97.5107 47.2521 97.9354 46.9049 98.4323 46.6998C98.9291 46.4948 99.4759 46.4412 100.003 46.5457C100.531 46.6502 101.015 46.9082 101.396 47.2871C101.776 47.6659 102.035 48.1486 102.14 48.674C102.245 49.1995 102.191 49.7442 101.985 50.2391C101.779 50.7341 101.431 51.1572 100.984 51.4549C100.536 51.7525 100.011 51.9114 99.4728 51.9114C98.7517 51.9114 98.06 51.626 97.5501 51.118C97.0402 50.61 96.7537 49.921 96.7537 49.2025V49.2025Z" fill="#FAECDA"/>
<path opacity="0.9" d="M97.2056 37.1325C97.2056 36.6858 97.3385 36.2491 97.5877 35.8777C97.8368 35.5063 98.1909 35.2168 98.6052 35.0458C99.0194 34.8749 99.4753 34.8301 99.9151 34.9173C100.355 35.0044 100.759 35.2196 101.076 35.5354C101.393 35.8513 101.609 36.2537 101.696 36.6919C101.784 37.13 101.739 37.5841 101.567 37.9968C101.396 38.4095 101.105 38.7623 100.732 39.0105C100.36 39.2586 99.9212 39.3911 99.4728 39.3911C99.175 39.3911 98.8802 39.3327 98.6052 39.2192C98.3301 39.1057 98.0801 38.9393 97.8696 38.7296C97.6591 38.5198 97.4921 38.2708 97.3781 37.9968C97.2642 37.7228 97.2056 37.4291 97.2056 37.1325V37.1325Z" fill="#FAECDA"/>
<path opacity="0.9" d="M97.6577 25.077C97.6577 24.7194 97.7642 24.3697 97.9636 24.0724C98.1631 23.775 98.4466 23.5432 98.7783 23.4063C99.11 23.2695 99.4749 23.2336 99.8271 23.3034C100.179 23.3732 100.503 23.5454 100.756 23.7983C101.01 24.0512 101.183 24.3734 101.253 24.7242C101.323 25.075 101.287 25.4386 101.15 25.769C101.013 26.0995 100.78 26.3819 100.481 26.5806C100.183 26.7793 99.8319 26.8853 99.4729 26.8853C98.9915 26.8853 98.5298 26.6948 98.1894 26.3557C97.849 26.0166 97.6577 25.5566 97.6577 25.077V25.077Z" fill="#FAECDA"/>
<path opacity="0.9" d="M98.1023 12.9851C98.1023 12.715 98.1827 12.4511 98.3333 12.2265C98.4839 12.002 98.6979 11.827 98.9483 11.7237C99.1988 11.6203 99.4743 11.5933 99.7402 11.646C100.006 11.6987 100.25 11.8287 100.442 12.0196C100.634 12.2106 100.764 12.4539 100.817 12.7187C100.87 12.9835 100.843 13.2581 100.739 13.5076C100.635 13.7571 100.46 13.9703 100.234 14.1203C100.009 14.2703 99.7439 14.3504 99.4728 14.3504C99.1093 14.3504 98.7607 14.2065 98.5037 13.9505C98.2467 13.6944 98.1023 13.3472 98.1023 12.9851V12.9851Z" fill="#FAECDA"/>
<path opacity="0.9" d="M98.5542 0.915071C98.5542 0.734089 98.6081 0.557154 98.709 0.406674C98.8099 0.256193 98.9534 0.138922 99.1212 0.0696632C99.2891 0.000404594 99.4738 -0.0177276 99.6519 0.0175802C99.8301 0.0528879 99.9938 0.140049 100.122 0.268022C100.251 0.395995 100.338 0.559044 100.374 0.736548C100.409 0.914052 100.391 1.09804 100.321 1.26525C100.252 1.43245 100.134 1.57536 99.9831 1.6759C99.832 1.77645 99.6544 1.83011 99.4727 1.83011C99.2297 1.82822 98.9972 1.73121 98.8253 1.56001C98.6535 1.38882 98.5561 1.15717 98.5542 0.915071V0.915071Z" fill="#FAECDA"/>
<path opacity="0.9" d="M81.3862 97.4973C81.3848 96.6047 81.6493 95.7318 82.1462 94.989C82.6431 94.2462 83.35 93.667 84.1775 93.3248C85.0051 92.9825 85.9159 92.8926 86.7948 93.0664C87.6736 93.2402 88.481 93.6699 89.1145 94.301C89.7481 94.9322 90.1794 95.7365 90.3539 96.612C90.5283 97.4875 90.438 98.3949 90.0945 99.2193C89.7509 100.044 89.1696 100.748 88.424 101.243C87.6784 101.738 86.8021 102.001 85.9061 102C84.7079 101.998 83.5594 101.523 82.7122 100.679C81.865 99.835 81.3882 98.6909 81.3862 97.4973V97.4973Z" fill="#FAECDA"/>
<path opacity="0.9" d="M85.9133 89.4797C88.1639 89.4797 89.9884 87.6621 89.9884 85.42C89.9884 83.1779 88.1639 81.3604 85.9133 81.3604C83.6626 81.3604 81.8381 83.1779 81.8381 85.42C81.8381 87.6621 83.6626 89.4797 85.9133 89.4797Z" fill="#FAECDA"/>
<path opacity="0.9" d="M85.9134 76.9594C87.9145 76.9594 89.5366 75.3434 89.5366 73.35C89.5366 71.3566 87.9145 69.7406 85.9134 69.7406C83.9124 69.7406 82.2903 71.3566 82.2903 73.35C82.2903 75.3434 83.9124 76.9594 85.9134 76.9594Z" fill="#FAECDA"/>
<path opacity="0.9" d="M82.7349 61.2799C82.7349 60.655 82.9209 60.0442 83.2693 59.5247C83.6178 59.0052 84.113 58.6003 84.6925 58.3612C85.2719 58.1221 85.9095 58.0595 86.5247 58.1814C87.1398 58.3033 87.7049 58.6042 88.1484 59.046C88.5919 59.4878 88.8939 60.0507 89.0163 60.6635C89.1386 61.2763 89.0758 61.9116 88.8358 62.4888C88.5958 63.0661 88.1893 63.5594 87.6678 63.9066C87.1463 64.2537 86.5332 64.439 85.906 64.439C85.065 64.439 84.2584 64.1061 83.6637 63.5137C83.069 62.9212 82.7349 62.1177 82.7349 61.2799V61.2799Z" fill="#FAECDA"/>
<path opacity="0.9" d="M83.1941 49.2025C83.1941 48.6668 83.3536 48.143 83.6524 47.6976C83.9512 47.2521 84.3758 46.9049 84.8727 46.6998C85.3696 46.4948 85.9163 46.4412 86.4438 46.5457C86.9712 46.6502 87.4558 46.9082 87.8361 47.2871C88.2163 47.6659 88.4753 48.1486 88.5802 48.674C88.6852 49.1995 88.6313 49.7442 88.4255 50.2391C88.2197 50.7341 87.8712 51.1572 87.424 51.4549C86.9768 51.7525 86.4511 51.9114 85.9133 51.9114C85.5562 51.9114 85.2026 51.8413 84.8727 51.7052C84.5428 51.5691 84.243 51.3695 83.9905 51.118C83.738 50.8664 83.5377 50.5678 83.4011 50.2391C83.2644 49.9105 83.1941 49.5583 83.1941 49.2025V49.2025Z" fill="#FAECDA"/>
<path opacity="0.9" d="M83.6389 37.1325C83.6389 36.6858 83.7719 36.2491 84.021 35.8777C84.2701 35.5063 84.6242 35.2168 85.0385 35.0458C85.4528 34.8749 85.9086 34.8301 86.3484 34.9173C86.7882 35.0044 87.1922 35.2196 87.5093 35.5354C87.8264 35.8513 88.0423 36.2537 88.1298 36.6919C88.2172 37.13 88.1724 37.5841 88.0008 37.9968C87.8292 38.4095 87.5386 38.7623 87.1657 39.0105C86.7929 39.2586 86.3545 39.3911 85.9061 39.3911C85.6084 39.3911 85.3136 39.3327 85.0385 39.2192C84.7634 39.1057 84.5135 38.9393 84.303 38.7296C84.0925 38.5198 83.9254 38.2708 83.8115 37.9968C83.6976 37.7228 83.6389 37.4291 83.6389 37.1325V37.1325Z" fill="#FAECDA"/>
<path opacity="0.9" d="M85.9134 26.8635C86.9159 26.8635 87.7286 26.0539 87.7286 25.0552C87.7286 24.0564 86.9159 23.2468 85.9134 23.2468C84.9108 23.2468 84.0981 24.0564 84.0981 25.0552C84.0981 26.0539 84.9108 26.8635 85.9134 26.8635Z" fill="#FAECDA"/>
<path opacity="0.9" d="M85.9133 14.3432C86.6662 14.3432 87.2765 13.7352 87.2765 12.9851C87.2765 12.2351 86.6662 11.6271 85.9133 11.6271C85.1604 11.6271 84.55 12.2351 84.55 12.9851C84.55 13.7352 85.1604 14.3432 85.9133 14.3432Z" fill="#FAECDA"/>
<path opacity="0.9" d="M84.9949 0.915039C84.9949 0.73375 85.0489 0.556545 85.1502 0.405911C85.2515 0.255277 85.3953 0.137985 85.5636 0.0689448C85.7319 -9.52857e-05 85.9169 -0.0177753 86.0953 0.0181251C86.2737 0.0540254 86.4374 0.141905 86.5655 0.270606C86.6937 0.399307 86.7806 0.563036 86.8152 0.741016C86.8498 0.918995 86.8306 1.10319 86.7599 1.27027C86.6893 1.43734 86.5704 1.57975 86.4184 1.67942C86.2664 1.77909 86.0881 1.83152 85.9061 1.83008C85.6638 1.82817 85.432 1.73092 85.2613 1.55952C85.0906 1.38812 84.9949 1.15648 84.9949 0.915039Z" fill="#FAECDA"/>
<path opacity="0.9" d="M67.8193 97.4973C67.8179 96.605 68.0822 95.7324 68.5787 94.9898C69.0753 94.2472 69.7819 93.668 70.609 93.3255C71.4361 92.983 72.3465 92.8927 73.2252 93.0659C74.1038 93.2391 74.9112 93.668 75.545 94.2985C76.1789 94.9289 76.6108 95.7325 76.7861 96.6075C76.9613 97.4826 76.8721 98.3897 76.5297 99.2143C76.1873 100.039 75.607 100.744 74.8624 101.239C74.1177 101.735 73.2422 102 72.3465 102C71.1471 102 69.9967 101.526 69.1479 100.682C68.2991 99.8374 67.8213 98.6921 67.8193 97.4973V97.4973Z" fill="#FAECDA"/>
<path opacity="0.9" d="M68.2715 85.42C68.2715 84.6171 68.5105 83.8322 68.9583 83.1646C69.4061 82.497 70.0425 81.9766 70.7871 81.6694C71.5318 81.3621 72.3512 81.2817 73.1417 81.4384C73.9322 81.595 74.6583 81.9816 75.2282 82.5494C75.7981 83.1171 76.1862 83.8405 76.3435 84.628C76.5007 85.4155 76.42 86.2318 76.1116 86.9736C75.8031 87.7154 75.2808 88.3494 74.6107 88.7955C73.9405 89.2416 73.1526 89.4797 72.3466 89.4797C71.8112 89.4806 71.2809 89.3763 70.786 89.1726C70.2912 88.9689 69.8415 88.6699 69.4629 88.2928C69.0843 87.9156 68.7842 87.4677 68.5797 86.9747C68.3753 86.4818 68.2705 85.9534 68.2715 85.42V85.42Z" fill="#FAECDA"/>
<path opacity="0.9" d="M68.7234 73.3499C68.7234 72.6318 68.9372 71.9297 69.3377 71.3325C69.7382 70.7354 70.3075 70.27 70.9735 69.9952C71.6396 69.7203 72.3725 69.6484 73.0795 69.7885C73.7866 69.9286 74.4361 70.2745 74.9459 70.7823C75.4556 71.2901 75.8028 71.9371 75.9434 72.6415C76.0841 73.3459 76.0119 74.076 75.736 74.7395C75.4601 75.403 74.9929 75.9702 74.3935 76.3692C73.7941 76.7682 73.0893 76.9811 72.3684 76.9811C71.4017 76.9811 70.4746 76.5985 69.791 75.9176C69.1074 75.2366 68.7234 74.313 68.7234 73.3499Z" fill="#FAECDA"/>
<path opacity="0.9" d="M69.1753 61.2799C69.1753 60.655 69.3613 60.0442 69.7097 59.5247C70.0582 59.0052 70.5535 58.6003 71.1329 58.3612C71.7124 58.1221 72.35 58.0595 72.9651 58.1814C73.5803 58.3033 74.1453 58.6042 74.5888 59.046C75.0323 59.4878 75.3344 60.0507 75.4567 60.6635C75.5791 61.2763 75.5163 61.9116 75.2763 62.4888C75.0362 63.0661 74.6298 63.5595 74.1083 63.9066C73.5868 64.2537 72.9737 64.439 72.3465 64.439C71.9298 64.44 71.517 64.3589 71.1318 64.2005C70.7466 64.042 70.3966 63.8094 70.102 63.5158C69.8073 63.2223 69.5738 62.8737 69.4147 62.4899C69.2557 62.1062 69.1743 61.695 69.1753 61.2799V61.2799Z" fill="#FAECDA"/>
<path opacity="0.9" d="M69.6274 49.2025C69.6274 48.6668 69.7869 48.143 70.0857 47.6976C70.3845 47.2521 70.8092 46.9049 71.306 46.6998C71.8029 46.4948 72.3496 46.4412 72.8771 46.5457C73.4046 46.6502 73.8891 46.9082 74.2694 47.2871C74.6497 47.6659 74.9087 48.1486 75.0136 48.674C75.1185 49.1995 75.0646 49.7442 74.8588 50.2391C74.653 50.7341 74.3045 51.1572 73.8573 51.4549C73.4102 51.7525 72.8844 51.9114 72.3466 51.9114C71.6255 51.9114 70.9338 51.626 70.4239 51.118C69.9139 50.61 69.6274 49.921 69.6274 49.2025V49.2025Z" fill="#FAECDA"/>
<path opacity="0.9" d="M70.072 37.1325C70.0706 36.684 70.2028 36.2452 70.4518 35.8717C70.7009 35.4981 71.0556 35.2066 71.4711 35.0339C71.8865 34.8613 72.3441 34.8154 72.7858 34.902C73.2275 34.9886 73.6334 35.2039 73.9523 35.5204C74.2711 35.837 74.4884 36.2408 74.5768 36.6805C74.6651 37.1202 74.6205 37.5762 74.4486 37.9906C74.2766 38.4051 73.9851 38.7594 73.6109 39.0087C73.2367 39.258 72.7967 39.3911 72.3465 39.3911C71.7446 39.3911 71.1671 39.1534 70.7408 38.73C70.3145 38.3066 70.074 37.7322 70.072 37.1325V37.1325Z" fill="#FAECDA"/>
<path opacity="0.9" d="M70.5239 25.077C70.5225 24.7176 70.6282 24.3659 70.8275 24.0663C71.0269 23.7668 71.3111 23.533 71.6439 23.3944C71.9768 23.2559 72.3435 23.2189 72.6975 23.2882C73.0515 23.3574 73.377 23.5297 73.6326 23.7833C73.8882 24.037 74.0625 24.3605 74.1334 24.7129C74.2043 25.0652 74.1686 25.4307 74.0309 25.7629C73.8932 26.095 73.6596 26.379 73.3597 26.5788C73.0599 26.7787 72.7072 26.8853 72.3465 26.8853C71.8644 26.8853 71.4019 26.695 71.0603 26.3561C70.7187 26.0172 70.5259 25.5573 70.5239 25.077V25.077Z" fill="#FAECDA"/>
<path opacity="0.9" d="M70.9761 12.9851C70.9761 12.715 71.0565 12.4511 71.207 12.2265C71.3576 12.002 71.5717 11.827 71.8221 11.7237C72.0726 11.6203 72.3481 11.5933 72.614 11.646C72.8798 11.6987 73.124 11.8287 73.3157 12.0196C73.5074 12.2106 73.6379 12.4539 73.6908 12.7187C73.7437 12.9835 73.7165 13.2581 73.6128 13.5076C73.5091 13.7571 73.3334 13.9703 73.108 14.1203C72.8826 14.2703 72.6177 14.3504 72.3466 14.3504C71.9831 14.3504 71.6345 14.2065 71.3775 13.9505C71.1205 13.6944 70.9761 13.3472 70.9761 12.9851V12.9851Z" fill="#FAECDA"/>
<path opacity="0.9" d="M71.428 0.915071C71.428 0.734089 71.4818 0.557154 71.5828 0.406674C71.6837 0.256193 71.8272 0.138922 71.995 0.0696632C72.1629 0.000404594 72.3475 -0.0177276 72.5257 0.0175802C72.7039 0.0528879 72.8676 0.140049 72.996 0.268022C73.1245 0.395995 73.212 0.559044 73.2474 0.736548C73.2829 0.914052 73.2647 1.09804 73.1951 1.26525C73.1256 1.43245 73.0079 1.57536 72.8568 1.6759C72.7058 1.77645 72.5282 1.83011 72.3465 1.83011C72.1029 1.83011 71.8693 1.7337 71.697 1.5621C71.5248 1.39049 71.428 1.15776 71.428 0.915071V0.915071Z" fill="#FAECDA"/>
<path opacity="0.9" d="M54.2527 97.4973C54.2512 96.605 54.5155 95.7324 55.0121 94.9898C55.5087 94.2472 56.2152 93.668 57.0423 93.3255C57.8694 92.983 58.7799 92.8927 59.6585 93.0659C60.5372 93.2391 61.3445 93.668 61.9784 94.2985C62.6123 94.9289 63.0441 95.7325 63.2194 96.6075C63.3947 97.4826 63.3055 98.3897 62.963 99.2143C62.6206 100.039 62.0403 100.744 61.2957 101.239C60.5511 101.735 59.6755 102 58.7798 102C57.5804 102 56.43 101.526 55.5812 100.682C54.7324 99.8374 54.2546 98.6921 54.2527 97.4973Z" fill="#FAECDA"/>
<path opacity="0.9" d="M58.7797 89.4797C61.0304 89.4797 62.8549 87.6621 62.8549 85.42C62.8549 83.1779 61.0304 81.3604 58.7797 81.3604C56.5291 81.3604 54.7046 83.1779 54.7046 85.42C54.7046 87.6621 56.5291 89.4797 58.7797 89.4797Z" fill="#FAECDA"/>
<path opacity="0.9" d="M55.1565 73.3499C55.1565 72.6318 55.3703 71.9297 55.7708 71.3325C56.1713 70.7354 56.7406 70.27 57.4066 69.9952C58.0727 69.7203 58.8056 69.6484 59.5126 69.7885C60.2197 69.9286 60.8692 70.2745 61.379 70.7823C61.8887 71.2901 62.2359 71.9371 62.3765 72.6415C62.5172 73.3459 62.445 74.076 62.1691 74.7395C61.8932 75.403 61.426 75.9702 60.8266 76.3692C60.2272 76.7682 59.5224 76.9811 58.8015 76.9811C57.8348 76.9811 56.9077 76.5985 56.2241 75.9176C55.5405 75.2366 55.1565 74.313 55.1565 73.3499Z" fill="#FAECDA"/>
<path opacity="0.9" d="M55.6086 61.2799C55.6086 60.655 55.7946 60.0442 56.1431 59.5247C56.4915 59.0052 56.9868 58.6003 57.5663 58.3612C58.1457 58.1221 58.7833 58.0595 59.3985 58.1814C60.0136 58.3033 60.5787 58.6042 61.0222 59.046C61.4657 59.4878 61.7677 60.0507 61.8901 60.6635C62.0124 61.2763 61.9496 61.9116 61.7096 62.4888C61.4696 63.0661 61.0631 63.5594 60.5416 63.9066C60.0201 64.2537 59.407 64.439 58.7798 64.439C57.9388 64.439 57.1322 64.1061 56.5375 63.5137C55.9427 62.9212 55.6086 62.1177 55.6086 61.2799V61.2799Z" fill="#FAECDA"/>
<path opacity="0.9" d="M56.0605 49.2025C56.0605 48.6668 56.22 48.143 56.5188 47.6976C56.8176 47.2521 57.2423 46.9049 57.7392 46.6998C58.236 46.4948 58.7828 46.4412 59.3102 46.5457C59.8377 46.6502 60.3222 46.9082 60.7025 47.2871C61.0828 47.6659 61.3418 48.1486 61.4467 48.674C61.5516 49.1995 61.4978 49.7442 61.2919 50.2391C61.0861 50.7341 60.7376 51.1572 60.2904 51.4549C59.8433 51.7525 59.3175 51.9114 58.7797 51.9114C58.0586 51.9114 57.3669 51.626 56.857 51.118C56.347 50.61 56.0605 49.921 56.0605 49.2025V49.2025Z" fill="#FAECDA"/>
<path opacity="0.9" d="M58.7797 39.3911C60.0318 39.3911 61.0469 38.3799 61.0469 37.1325C61.0469 35.8851 60.0318 34.8739 58.7797 34.8739C57.5275 34.8739 56.5125 35.8851 56.5125 37.1325C56.5125 38.3799 57.5275 39.3911 58.7797 39.3911Z" fill="#FAECDA"/>
<path opacity="0.9" d="M56.95 25.077C56.95 24.7194 57.0564 24.3697 57.2559 24.0724C57.4553 23.775 57.7388 23.5432 58.0705 23.4063C58.4022 23.2695 58.7672 23.2336 59.1193 23.3034C59.4714 23.3732 59.7949 23.5454 60.0487 23.7983C60.3026 24.0512 60.4755 24.3734 60.5455 24.7242C60.6156 25.075 60.5796 25.4386 60.4422 25.769C60.3048 26.0995 60.0722 26.3819 59.7737 26.5806C59.4751 26.7793 59.1242 26.8853 58.7652 26.8853C58.2838 26.8853 57.822 26.6948 57.4816 26.3557C57.1412 26.0166 56.95 25.5566 56.95 25.077V25.077Z" fill="#FAECDA"/>
<path opacity="0.9" d="M57.4092 12.9851C57.4092 12.715 57.4896 12.4511 57.6402 12.2265C57.7907 12.002 58.0048 11.827 58.2552 11.7237C58.5057 11.6203 58.7812 11.5933 59.0471 11.646C59.3129 11.6987 59.5571 11.8287 59.7488 12.0196C59.9405 12.2106 60.071 12.4539 60.1239 12.7187C60.1768 12.9835 60.1496 13.2581 60.0459 13.5076C59.9422 13.7571 59.7665 13.9703 59.5411 14.1203C59.3157 14.2703 59.0508 14.3504 58.7797 14.3504C58.4162 14.3504 58.0676 14.2065 57.8106 13.9505C57.5536 13.6944 57.4092 13.3472 57.4092 12.9851V12.9851Z" fill="#FAECDA"/>
<path opacity="0.9" d="M57.8613 0.915071C57.8613 0.734089 57.9152 0.557154 58.0161 0.406674C58.1171 0.256193 58.2605 0.138922 58.4284 0.0696632C58.5962 0.000404594 58.7809 -0.0177276 58.9591 0.0175802C59.1373 0.0528879 59.3009 0.140049 59.4294 0.268022C59.5578 0.395995 59.6453 0.559044 59.6808 0.736548C59.7162 0.914052 59.698 1.09804 59.6285 1.26525C59.559 1.43245 59.4412 1.57536 59.2902 1.6759C59.1391 1.77645 58.9615 1.83011 58.7799 1.83011C58.5363 1.83011 58.3026 1.7337 58.1304 1.5621C57.9581 1.39049 57.8613 1.15776 57.8613 0.915071V0.915071Z" fill="#FAECDA"/>
<path opacity="0.9" d="M40.6931 97.4973C40.6917 96.6047 40.9561 95.7318 41.453 94.989C41.9499 94.2462 42.6569 93.667 43.4844 93.3248C44.3119 92.9825 45.2228 92.8926 46.1017 93.0664C46.9805 93.2402 47.7878 93.6699 48.4214 94.301C49.055 94.9322 49.4863 95.7365 49.6607 96.612C49.8352 97.4875 49.7449 98.3949 49.4014 99.2193C49.0578 100.044 48.4764 100.748 47.7308 101.243C46.9852 101.738 46.109 102.001 45.213 102C44.0148 101.998 42.8663 101.523 42.0191 100.679C41.1719 99.835 40.695 98.6909 40.6931 97.4973V97.4973Z" fill="#FAECDA"/>
<path opacity="0.9" d="M41.145 85.42C41.145 84.6168 41.3842 83.8316 41.8323 83.1638C42.2804 82.4961 42.9173 81.9757 43.6624 81.6687C44.4074 81.3616 45.2272 81.2817 46.0179 81.4389C46.8086 81.5961 47.5347 81.9835 48.1043 82.552C48.6739 83.1204 49.0615 83.8445 49.2179 84.6325C49.3743 85.4205 49.2926 86.2369 48.983 86.9786C48.6735 87.7203 48.15 88.3538 47.4789 88.799C46.8078 89.2443 46.0192 89.4811 45.2129 89.4797C44.6781 89.4797 44.1485 89.3746 43.6545 89.1705C43.1605 88.9664 42.7117 88.6673 42.3339 88.2902C41.9561 87.9131 41.6566 87.4655 41.4526 86.973C41.2486 86.4805 41.1441 85.9528 41.145 85.42Z" fill="#FAECDA"/>
<path opacity="0.9" d="M45.213 76.9594C47.214 76.9594 48.8362 75.3434 48.8362 73.35C48.8362 71.3566 47.214 69.7406 45.213 69.7406C43.212 69.7406 41.5898 71.3566 41.5898 73.35C41.5898 75.3434 43.212 76.9594 45.213 76.9594Z" fill="#FAECDA"/>
<path opacity="0.9" d="M42.0417 61.2799C42.0417 60.655 42.2277 60.0442 42.5762 59.5247C42.9246 59.0052 43.4199 58.6003 43.9994 58.3612C44.5788 58.1221 45.2164 58.0595 45.8316 58.1814C46.4467 58.3033 47.0118 58.6042 47.4553 59.046C47.8988 59.4878 48.2008 60.0507 48.3232 60.6635C48.4455 61.2763 48.3827 61.9116 48.1427 62.4888C47.9027 63.0661 47.4962 63.5594 46.9747 63.9066C46.4532 64.2537 45.8401 64.439 45.2129 64.439C44.3719 64.439 43.5653 64.1061 42.9706 63.5137C42.3758 62.9212 42.0417 62.1177 42.0417 61.2799V61.2799Z" fill="#FAECDA"/>
<path opacity="0.9" d="M42.4937 49.2026C42.5008 48.6684 42.6664 48.1483 42.9695 47.7077C43.2727 47.267 43.6998 46.9254 44.1973 46.726C44.6947 46.5265 45.2403 46.478 45.7653 46.5866C46.2904 46.6952 46.7715 46.956 47.1481 47.3362C47.5248 47.7165 47.7802 48.1992 47.8822 48.7236C47.9842 49.2481 47.9282 49.7909 47.7214 50.2837C47.5145 50.7766 47.166 51.1976 46.7197 51.4936C46.2733 51.7897 45.7491 51.9477 45.2128 51.9478C44.8527 51.9478 44.4961 51.8765 44.1638 51.7382C43.8315 51.5998 43.5301 51.397 43.2771 51.1416C43.0241 50.8862 42.8246 50.5833 42.6901 50.2504C42.5556 49.9175 42.4888 49.5614 42.4937 49.2026V49.2026Z" fill="#FAECDA"/>
<path opacity="0.9" d="M45.213 39.3911C46.4652 39.3911 47.4802 38.3799 47.4802 37.1325C47.4802 35.8851 46.4652 34.8739 45.213 34.8739C43.9609 34.8739 42.9458 35.8851 42.9458 37.1325C42.9458 38.3799 43.9609 39.3911 45.213 39.3911Z" fill="#FAECDA"/>
<path opacity="0.9" d="M43.3977 25.077C43.3977 24.7194 43.5042 24.3697 43.7036 24.0724C43.9031 23.775 44.1866 23.5432 44.5183 23.4063C44.85 23.2695 45.2149 23.2336 45.5671 23.3034C45.9192 23.3732 46.2426 23.5454 46.4965 23.7983C46.7503 24.0512 46.9232 24.3734 46.9933 24.7242C47.0633 25.075 47.0274 25.4386 46.89 25.769C46.7526 26.0995 46.5199 26.3819 46.2214 26.5806C45.9229 26.7793 45.5719 26.8853 45.2129 26.8853C44.7315 26.8853 44.2698 26.6948 43.9294 26.3557C43.5889 26.0166 43.3977 25.5566 43.3977 25.077V25.077Z" fill="#FAECDA"/>
<path opacity="0.9" d="M45.2129 14.3432C45.9657 14.3432 46.5761 13.7352 46.5761 12.9851C46.5761 12.2351 45.9657 11.6271 45.2129 11.6271C44.46 11.6271 43.8496 12.2351 43.8496 12.9851C43.8496 13.7352 44.46 14.3432 45.2129 14.3432Z" fill="#FAECDA"/>
<path opacity="0.9" d="M44.2944 0.915066C44.2944 0.672377 44.3912 0.439624 44.5635 0.268017C44.7357 0.0964103 44.9694 0 45.213 0C45.4566 0 45.6902 0.0964103 45.8625 0.268017C46.0348 0.439624 46.1315 0.672377 46.1315 0.915066C46.1315 1.15775 46.0348 1.39049 45.8625 1.56209C45.6902 1.7337 45.4566 1.83011 45.213 1.83011C44.9694 1.83011 44.7357 1.7337 44.5635 1.56209C44.3912 1.39049 44.2944 1.15775 44.2944 0.915066V0.915066Z" fill="#FAECDA"/>
<path opacity="0.9" d="M27.1262 97.4973C27.1248 96.6047 27.3893 95.7318 27.8861 94.989C28.383 94.2462 29.09 93.667 29.9175 93.3248C30.7451 92.9825 31.6559 92.8926 32.5348 93.0664C33.4136 93.2402 34.2209 93.6699 34.8545 94.301C35.4881 94.9322 35.9194 95.7365 36.0938 96.612C36.2683 97.4875 36.178 98.3949 35.8345 99.2193C35.4909 100.044 34.9095 100.748 34.1639 101.243C33.4183 101.738 32.5421 102.001 31.6461 102C30.4479 101.998 29.2994 101.523 28.4522 100.679C27.605 99.835 27.1282 98.6909 27.1262 97.4973V97.4973Z" fill="#FAECDA"/>
<path opacity="0.9" d="M31.6535 89.4797C33.9042 89.4797 35.7287 87.6621 35.7287 85.42C35.7287 83.1779 33.9042 81.3604 31.6535 81.3604C29.4029 81.3604 27.5784 83.1779 27.5784 85.42C27.5784 87.6621 29.4029 89.4797 31.6535 89.4797Z" fill="#FAECDA"/>
<path opacity="0.9" d="M31.6534 76.9594C33.6544 76.9594 35.2766 75.3434 35.2766 73.35C35.2766 71.3566 33.6544 69.7406 31.6534 69.7406C29.6524 69.7406 28.0303 71.3566 28.0303 73.35C28.0303 75.3434 29.6524 76.9594 31.6534 76.9594Z" fill="#FAECDA"/>
<path opacity="0.9" d="M28.5188 61.2799C28.5188 60.6547 28.705 60.0437 29.0538 59.524C29.4025 59.0043 29.8982 58.5994 30.4781 58.3605C31.058 58.1216 31.696 58.0595 32.3113 58.182C32.9267 58.3044 33.4917 58.6061 33.9349 59.0486C34.3781 59.4911 34.6796 60.0547 34.8011 60.668C34.9226 61.2813 34.8588 61.9167 34.6177 62.4938C34.3765 63.071 33.9689 63.5639 33.4465 63.9101C32.924 64.2564 32.3102 64.4404 31.6827 64.439C31.2666 64.439 30.8546 64.3572 30.4702 64.1984C30.0859 64.0395 29.7368 63.8067 29.4429 63.5133C29.149 63.2198 28.9161 62.8715 28.7575 62.4883C28.599 62.105 28.5178 61.6944 28.5188 61.2799Z" fill="#FAECDA"/>
<path opacity="0.9" d="M28.927 49.2025C28.927 48.6668 29.0865 48.143 29.3853 47.6976C29.6841 47.2521 30.1087 46.9049 30.6056 46.6998C31.1025 46.4948 31.6492 46.4412 32.1767 46.5457C32.7042 46.6502 33.1887 46.9082 33.569 47.2871C33.9492 47.6659 34.2082 48.1486 34.3131 48.674C34.4181 49.1995 34.3642 49.7442 34.1584 50.2391C33.9526 50.7341 33.6041 51.1572 33.1569 51.4549C32.7097 51.7525 32.184 51.9114 31.6462 51.9114C30.925 51.9114 30.2334 51.626 29.7234 51.118C29.2135 50.61 28.927 49.921 28.927 49.2025V49.2025Z" fill="#FAECDA"/>
<path opacity="0.9" d="M29.3789 37.1325C29.3775 36.6837 29.5098 36.2446 29.7592 35.8709C30.0086 35.4972 30.3637 35.2056 30.7796 35.0332C31.1955 34.8608 31.6535 34.8154 32.0954 34.9026C32.5372 34.9898 32.9432 35.2057 33.2617 35.523C33.5803 35.8404 33.797 36.2448 33.8846 36.685C33.9721 37.1252 33.9264 37.5814 33.7534 37.9957C33.5803 38.41 33.2877 38.7638 32.9125 39.0123C32.5374 39.2607 32.0966 39.3925 31.6461 39.3911C31.3484 39.3911 31.0536 39.3327 30.7785 39.2192C30.5034 39.1057 30.2535 38.9393 30.043 38.7296C29.8324 38.5198 29.6654 38.2708 29.5515 37.9968C29.4376 37.7228 29.3789 37.4291 29.3789 37.1325V37.1325Z" fill="#FAECDA"/>
<path opacity="0.9" d="M31.6534 26.8635C32.6559 26.8635 33.4686 26.0539 33.4686 25.0552C33.4686 24.0564 32.6559 23.2468 31.6534 23.2468C30.6508 23.2468 29.8381 24.0564 29.8381 25.0552C29.8381 26.0539 30.6508 26.8635 31.6534 26.8635Z" fill="#FAECDA"/>
<path opacity="0.9" d="M31.6535 14.3432C32.4064 14.3432 33.0168 13.7352 33.0168 12.9851C33.0168 12.2351 32.4064 11.6271 31.6535 11.6271C30.9006 11.6271 30.2903 12.2351 30.2903 12.9851C30.2903 13.7352 30.9006 14.3432 31.6535 14.3432Z" fill="#FAECDA"/>
<path opacity="0.9" d="M30.7058 0.915039C30.7058 0.73375 30.7599 0.556545 30.8611 0.405911C30.9624 0.255277 31.1063 0.137985 31.2745 0.0689448C31.4428 -9.52857e-05 31.6279 -0.0177753 31.8063 0.0181251C31.9846 0.0540254 32.1483 0.141905 32.2764 0.270606C32.4046 0.399307 32.4915 0.563036 32.5261 0.741016C32.5607 0.918995 32.5415 1.10319 32.4709 1.27027C32.4002 1.43734 32.2814 1.57975 32.1294 1.67942C31.9773 1.77909 31.799 1.83152 31.6171 1.83008C31.3747 1.82817 31.143 1.73092 30.9723 1.55952C30.8016 1.38812 30.7058 1.15648 30.7058 0.915039Z" fill="#FAECDA"/>
<path opacity="0.9" d="M13.5596 97.4973C13.5581 96.605 13.8224 95.7324 14.319 94.9898C14.8156 94.2472 15.5221 93.668 16.3492 93.3255C17.1763 92.983 18.0868 92.8927 18.9654 93.0659C19.8441 93.2391 20.6514 93.668 21.2853 94.2985C21.9191 94.9289 22.351 95.7325 22.5263 96.6075C22.7016 97.4826 22.6123 98.3897 22.2699 99.2143C21.9275 100.039 21.3472 100.744 20.6026 101.239C19.858 101.735 18.9824 102 18.0867 102C16.8873 102 15.7369 101.526 14.8881 100.682C14.0393 99.8374 13.5615 98.6921 13.5596 97.4973V97.4973Z" fill="#FAECDA"/>
<path opacity="0.9" d="M14.0115 85.42C14.0115 84.6171 14.2505 83.8322 14.6983 83.1646C15.146 82.497 15.7825 81.9766 16.5271 81.6694C17.2718 81.3621 18.0911 81.2817 18.8816 81.4384C19.6721 81.595 20.3983 81.9816 20.9682 82.5494C21.5381 83.1171 21.9262 83.8405 22.0835 84.628C22.2407 85.4155 22.16 86.2318 21.8516 86.9736C21.5431 87.7154 21.0208 88.3494 20.3506 88.7955C19.6805 89.2416 18.8926 89.4797 18.0866 89.4797C17.5512 89.4806 17.0208 89.3763 16.526 89.1726C16.0311 88.9689 15.5815 88.6699 15.2029 88.2928C14.8243 87.9156 14.5242 87.4677 14.3197 86.9747C14.1153 86.4818 14.0105 85.9534 14.0115 85.42V85.42Z" fill="#FAECDA"/>
<path opacity="0.9" d="M18.0865 76.9594C20.0876 76.9594 21.7097 75.3434 21.7097 73.35C21.7097 71.3566 20.0876 69.7406 18.0865 69.7406C16.0855 69.7406 14.4634 71.3566 14.4634 73.35C14.4634 75.3434 16.0855 76.9594 18.0865 76.9594Z" fill="#FAECDA"/>
<path opacity="0.9" d="M14.9155 61.2799C14.9155 60.655 15.1015 60.0442 15.45 59.5247C15.7984 59.0052 16.2937 58.6003 16.8732 58.3612C17.4526 58.1221 18.0902 58.0595 18.7054 58.1814C19.3205 58.3033 19.8856 58.6042 20.3291 59.046C20.7726 59.4878 21.0746 60.0507 21.197 60.6635C21.3193 61.2763 21.2565 61.9116 21.0165 62.4888C20.7765 63.0661 20.37 63.5594 19.8485 63.9066C19.327 64.2537 18.7139 64.439 18.0867 64.439C17.2457 64.439 16.4391 64.1061 15.8443 63.5137C15.2496 62.9212 14.9155 62.1177 14.9155 61.2799V61.2799Z" fill="#FAECDA"/>
<path opacity="0.9" d="M15.3967 49.2025C15.3967 48.6668 15.5562 48.143 15.855 47.6976C16.1538 47.2521 16.5785 46.9049 17.0753 46.6998C17.5722 46.4948 18.1189 46.4412 18.6464 46.5457C19.1739 46.6502 19.6584 46.9082 20.0387 47.2871C20.419 47.6659 20.6779 48.1486 20.7829 48.674C20.8878 49.1995 20.8339 49.7442 20.6281 50.2391C20.4223 50.7341 20.0738 51.1572 19.6266 51.4549C19.1795 51.7525 18.6537 51.9114 18.1159 51.9114C17.3947 51.9114 16.7031 51.626 16.1932 51.118C15.6832 50.61 15.3967 49.921 15.3967 49.2025V49.2025Z" fill="#FAECDA"/>
<path opacity="0.9" d="M15.8193 37.1325C15.8193 36.6858 15.9523 36.2491 16.2014 35.8777C16.4505 35.5063 16.8046 35.2168 17.2189 35.0458C17.6332 34.8749 18.0891 34.8301 18.5289 34.9173C18.9687 35.0044 19.3726 35.2196 19.6897 35.5354C20.0068 35.8513 20.2227 36.2537 20.3102 36.6919C20.3977 37.13 20.3528 37.5841 20.1812 37.9968C20.0096 38.4095 19.719 38.7623 19.3461 39.0105C18.9733 39.2586 18.535 39.3911 18.0865 39.3911C17.7888 39.3911 17.494 39.3327 17.2189 39.2192C16.9438 39.1057 16.6939 38.9393 16.4834 38.7296C16.2728 38.5198 16.1059 38.2708 15.9919 37.9968C15.878 37.7228 15.8193 37.4291 15.8193 37.1325V37.1325Z" fill="#FAECDA"/>
<path opacity="0.9" d="M16.2642 25.077C16.2627 24.7176 16.3684 24.3659 16.5678 24.0663C16.7672 23.7668 17.0513 23.533 17.3842 23.3944C17.7171 23.2559 18.0837 23.2189 18.4378 23.2882C18.7918 23.3574 19.1172 23.5297 19.3728 23.7833C19.6284 24.037 19.8027 24.3605 19.8736 24.7129C19.9445 25.0652 19.9089 25.4307 19.7712 25.7629C19.6334 26.095 19.3998 26.379 19.1 26.5788C18.8001 26.7787 18.4475 26.8853 18.0867 26.8853C17.6046 26.8853 17.1421 26.695 16.8006 26.3561C16.459 26.0172 16.2661 25.5573 16.2642 25.077V25.077Z" fill="#FAECDA"/>
<path opacity="0.9" d="M18.0866 14.3432C18.8395 14.3432 19.4499 13.7352 19.4499 12.9851C19.4499 12.2351 18.8395 11.6271 18.0866 11.6271C17.3337 11.6271 16.7234 12.2351 16.7234 12.9851C16.7234 13.7352 17.3337 14.3432 18.0866 14.3432Z" fill="#FAECDA"/>
<path opacity="0.9" d="M17.168 0.915071C17.168 0.734089 17.2218 0.557154 17.3228 0.406674C17.4237 0.256193 17.5672 0.138922 17.735 0.0696632C17.9029 0.000404594 18.0875 -0.0177276 18.2657 0.0175802C18.4439 0.0528879 18.6076 0.140049 18.736 0.268022C18.8645 0.395995 18.952 0.559044 18.9874 0.736548C19.0229 0.914052 19.0047 1.09804 18.9352 1.26525C18.8656 1.43245 18.7479 1.57536 18.5968 1.6759C18.4458 1.77645 18.2682 1.83011 18.0865 1.83011C17.8429 1.83011 17.6093 1.7337 17.437 1.5621C17.2647 1.39049 17.168 1.15776 17.168 0.915071V0.915071Z" fill="#FAECDA"/>
<path opacity="0.9" d="M0 97.4973C0 96.6067 0.265075 95.7362 0.761721 94.9957C1.25837 94.2553 1.96428 93.6782 2.79017 93.3374C3.61606 92.9966 4.52485 92.9074 5.40161 93.0812C6.27838 93.2549 7.08373 93.6837 7.71584 94.3134C8.34795 94.9431 8.77843 95.7454 8.95283 96.6189C9.12723 97.4923 9.03772 98.3976 8.69562 99.2204C8.35353 100.043 7.7742 100.746 7.03092 101.241C6.28764 101.736 5.41377 102 4.51983 102C3.3211 102 2.17146 101.526 1.32383 100.681C0.476192 99.8367 0 98.6914 0 97.4973V97.4973Z" fill="#FAECDA"/>
<path opacity="0.9" d="M4.51972 89.4797C6.77036 89.4797 8.59487 87.6621 8.59487 85.42C8.59487 83.1779 6.77036 81.3604 4.51972 81.3604C2.26908 81.3604 0.44458 83.1779 0.44458 85.42C0.44458 87.6621 2.26908 89.4797 4.51972 89.4797Z" fill="#FAECDA"/>
<path opacity="0.9" d="M4.51989 76.9594C6.5209 76.9594 8.14305 75.3434 8.14305 73.35C8.14305 71.3566 6.5209 69.7406 4.51989 69.7406C2.51887 69.7406 0.896729 71.3566 0.896729 73.35C0.896729 75.3434 2.51887 76.9594 4.51989 76.9594Z" fill="#FAECDA"/>
<path opacity="0.9" d="M1.34863 61.2799C1.34863 60.655 1.53462 60.0442 1.88307 59.5247C2.23153 59.0052 2.7268 58.6003 3.30626 58.3612C3.88571 58.1221 4.52333 58.0595 5.13848 58.1814C5.75363 58.3033 6.31868 58.6042 6.76217 59.046C7.20567 59.4878 7.5077 60.0507 7.63006 60.6635C7.75242 61.2763 7.68962 61.9116 7.4496 62.4888C7.20958 63.0661 6.80312 63.5594 6.28163 63.9066C5.76013 64.2537 5.14701 64.439 4.51981 64.439C3.67877 64.439 2.87217 64.1061 2.27745 63.5137C1.68274 62.9212 1.34863 62.1177 1.34863 61.2799V61.2799Z" fill="#FAECDA"/>
<path opacity="0.9" d="M1.80054 49.2025C1.80054 48.6668 1.96001 48.143 2.2588 47.6976C2.55759 47.2521 2.98227 46.9049 3.47913 46.6998C3.976 46.4948 4.52275 46.4412 5.05022 46.5457C5.57769 46.6502 6.0622 46.9082 6.44249 47.2871C6.82277 47.6659 7.08175 48.1486 7.18667 48.674C7.29159 49.1995 7.23775 49.7442 7.03194 50.2391C6.82613 50.7341 6.4776 51.1572 6.03043 51.4549C5.58326 51.7525 5.05753 51.9114 4.51973 51.9114C3.79855 51.9114 3.10691 51.626 2.59696 51.118C2.08702 50.61 1.80054 49.921 1.80054 49.2025V49.2025Z" fill="#FAECDA"/>
<path opacity="0.9" d="M2.27441 37.1325C2.27441 36.6858 2.40738 36.2491 2.6565 35.8777C2.90563 35.5063 3.25973 35.2168 3.674 35.0458C4.08828 34.8749 4.54414 34.8301 4.98394 34.9173C5.42373 35.0044 5.8277 35.2196 6.14478 35.5354C6.46185 35.8513 6.67779 36.2537 6.76527 36.6919C6.85275 37.13 6.80785 37.5841 6.63625 37.9968C6.46465 38.4095 6.17406 38.7623 5.80122 39.0105C5.42838 39.2586 4.99003 39.3911 4.54162 39.3911C4.24389 39.3911 3.94907 39.3327 3.674 39.2192C3.39893 39.1057 3.149 38.9393 2.93847 38.7296C2.72794 38.5198 2.56094 38.2708 2.447 37.9968C2.33306 37.7228 2.27441 37.4291 2.27441 37.1325V37.1325Z" fill="#FAECDA"/>
<path opacity="0.9" d="M4.51981 26.8635C5.52234 26.8635 6.33504 26.0539 6.33504 25.0552C6.33504 24.0564 5.52234 23.2468 4.51981 23.2468C3.51729 23.2468 2.70459 24.0564 2.70459 25.0552C2.70459 26.0539 3.51729 26.8635 4.51981 26.8635Z" fill="#FAECDA"/>
<path opacity="0.9" d="M4.51974 14.3432C5.27263 14.3432 5.88298 13.7352 5.88298 12.9851C5.88298 12.2351 5.27263 11.6271 4.51974 11.6271C3.76684 11.6271 3.15649 12.2351 3.15649 12.9851C3.15649 13.7352 3.76684 14.3432 4.51974 14.3432Z" fill="#FAECDA"/>
<path opacity="0.9" d="M3.60132 0.915071C3.60132 0.734089 3.65519 0.557154 3.75612 0.406674C3.85705 0.256193 4.00051 0.138922 4.16835 0.0696632C4.33619 0.000404594 4.52088 -0.0177276 4.69907 0.0175802C4.87725 0.0528879 5.04091 0.140049 5.16937 0.268022C5.29783 0.395995 5.38532 0.559044 5.42076 0.736548C5.45621 0.914052 5.43802 1.09804 5.36849 1.26525C5.29897 1.43245 5.18123 1.57536 5.03017 1.6759C4.87912 1.77645 4.70153 1.83011 4.51986 1.83011C4.27684 1.82822 4.04431 1.73121 3.87246 1.56001C3.70061 1.38882 3.60322 1.15717 3.60132 0.915071V0.915071Z" fill="#FAECDA"/>
</g>
</svg>
