<svg width="123" height="102" viewBox="0 0 123 102" fill="none" xmlns="http://www.w3.org/2000/svg">
<g clip-path="url(#clip0_207_157)">
<path d="M120.312 94.9778C128.608 86.6237 114.816 59.1901 89.5083 33.703C64.2004 8.21586 36.9596 -5.67319 28.6643 2.68088C20.369 11.0349 34.1604 38.4686 59.4683 63.9557C84.7762 89.4428 112.017 103.332 120.312 94.9778Z" stroke="white" stroke-width="0.3" stroke-miterlimit="10"/>
<path d="M117.423 85.1027C123.873 76.7494 108.583 53.9085 83.2721 34.0863C57.961 14.264 32.2134 4.96669 25.7632 13.32C19.313 21.6734 34.6026 44.5143 59.9137 64.3365C85.2248 84.1588 110.973 93.4561 117.423 85.1027Z" stroke="white" stroke-width="0.3" stroke-miterlimit="10"/>
<path d="M114.528 75.3353C119.135 66.9814 102.353 48.732 77.0426 34.5739C51.7325 20.4159 27.4795 15.7107 22.872 24.0646C18.2645 32.4185 35.0472 50.668 60.3572 64.826C85.6672 78.9841 109.92 83.6892 114.528 75.3353Z" stroke="white" stroke-width="0.3" stroke-miterlimit="10"/>
<path d="M111.619 65.5662C114.382 57.2136 96.1065 43.5572 70.7982 35.0637C45.4898 26.5703 22.7328 26.4562 19.969 34.8089C17.2051 43.1616 35.4811 56.818 60.7894 65.3114C86.0977 73.8048 108.855 73.9189 111.619 65.5662Z" stroke="white" stroke-width="0.3" stroke-miterlimit="10"/>
<path d="M108.767 55.8819C109.689 47.5287 89.9195 38.4615 64.6114 35.6297C39.3034 32.7978 18.0402 37.2738 17.1186 45.6269C16.197 53.9801 35.9661 63.0472 61.2741 65.8791C86.5821 68.7109 107.845 64.235 108.767 55.8819Z" stroke="white" stroke-width="0.3" stroke-miterlimit="10"/>
<path d="M61.7262 66.3667C87.0342 63.5349 106.803 54.4677 105.882 46.1146C104.96 37.7615 83.6969 33.2856 58.3889 36.1174C33.0809 38.9492 13.3118 48.0164 14.2333 56.3695C15.1549 64.7227 36.4182 69.1985 61.7262 66.3667Z" stroke="white" stroke-width="0.3" stroke-miterlimit="10"/>
<path d="M62.1209 66.9352C87.4292 58.4418 105.705 44.7853 102.941 36.4327C100.177 28.08 77.4205 28.1941 52.1121 36.6875C26.8038 45.1809 8.52789 58.8373 11.2917 67.19C14.0556 75.5426 36.8126 75.4286 62.1209 66.9352Z" stroke="white" stroke-width="0.3" stroke-miterlimit="10"/>
<path d="M62.5938 67.4208C87.9038 53.2628 104.687 35.0133 100.079 26.6595C95.4714 18.3056 71.2184 23.0107 45.9084 37.1687C20.5984 51.3268 3.81573 69.5763 8.42327 77.9302C13.0308 86.284 37.2838 81.5789 62.5938 67.4208Z" stroke="white" stroke-width="0.3" stroke-miterlimit="10"/>
<path d="M63.0602 67.9105C88.3713 48.0882 103.661 25.2474 97.2108 16.894C90.7606 8.54063 65.013 17.838 39.7019 37.6603C14.3908 57.4825 -0.898999 80.3234 5.55122 88.6767C12.0014 97.0301 37.7491 87.7327 63.0602 67.9105Z" stroke="white" stroke-width="0.3" stroke-miterlimit="10"/>
<path d="M63.5363 68.2944C88.8442 42.8073 102.636 15.3737 94.3403 7.01962C86.045 -1.33445 58.8042 12.5546 33.4963 38.0417C8.18845 63.5288 -5.60294 90.9625 2.69238 99.3166C10.9877 107.671 38.2284 93.7815 63.5363 68.2944Z" stroke="white" stroke-width="0.3" stroke-miterlimit="10"/>
</g>
<defs>
<clipPath id="clip0_207_157">
<rect width="122.946" height="102" fill="white" transform="translate(0.0268555)"/>
</clipPath>
</defs>
</svg>
