<svg width="389" height="564" viewBox="0 0 389 564" fill="none" xmlns="http://www.w3.org/2000/svg">
<g clip-path="url(#clip0_207_31)">
<path d="M24.6106 353.29C8.84168 311.279 -1.11935 266.218 2.31997 221.14C5.22392 183.137 18.5431 145.573 42.7157 115.878C54.29 101.516 68.4818 89.48 84.5392 80.4065C100.633 71.4494 118.316 65.8025 136.08 61.3239C171.025 52.4155 208.419 47.6774 239.714 28.5137C247.317 23.5609 254.525 18.0274 261.275 11.9625C268.673 5.71523 277.498 -0.369762 287.702 2.2265C292.83 3.79496 297.614 6.32228 301.8 9.67448C305.532 12.3681 309.128 15.2402 312.589 18.2908C319.383 24.2645 325.657 30.8059 331.343 37.844C354.672 66.6463 368.234 102.28 376.557 138.044C381.145 157.765 384.348 177.784 386.145 197.952C388.221 221.173 388.091 244.799 383.095 267.646C375.421 302.76 355.515 334.548 328.439 357.963C300.767 382.014 265.871 396.157 229.266 398.157C191.407 399.95 153.974 389.529 122.485 368.43C114.941 363.33 107.828 357.621 101.217 351.359C100.454 350.645 99.3023 351.781 100.065 352.511C128.052 378.616 163.763 394.915 201.817 398.952C238.892 403.098 276.285 394.67 307.998 375.018C338.536 355.962 362.411 327.897 376.33 294.696C393.202 253.805 390.574 208.419 383.63 165.645C377.611 128.583 367.228 91.392 347.939 58.9224C338.695 43.1124 326.998 28.8718 313.286 16.7331C309.879 13.7637 306.31 10.9239 302.644 8.26277C298.59 5.0787 294.026 2.60429 289.146 0.944533C279.753 -1.84645 271.122 2.2265 263.773 7.90583C256.424 13.5852 249.643 20.238 241.693 25.3981C233.933 30.3727 225.707 34.5791 217.131 37.9576C199.659 44.9675 181.246 49.2189 162.93 53.3729C144.614 57.527 125.973 61.5999 108.193 67.9769C90.8335 74.0647 74.7226 83.2516 60.6423 95.0916C32.3815 119.302 13.7572 153.735 5.48341 189.758C-4.60742 233.343 0.373178 279.232 12.5568 321.843C15.6392 332.601 19.192 343.213 23.1343 353.68C23.4912 354.637 25.0648 354.231 24.7566 353.242L24.6106 353.29Z" fill="white"/>
<path d="M25.5029 359.261C11.7132 318.387 3.65021 274.737 8.54962 231.558C12.6379 195.453 26.5736 160.16 50.73 132.689C62.2359 119.385 76.1506 108.374 91.7423 100.235C107.576 92.1221 124.854 87.2541 142.164 83.5382C176.233 76.1388 212.492 72.7637 243.105 54.8981C250.924 50.3384 257.608 44.5455 264.779 39.1258C272.469 33.3005 281.343 28.968 290.947 32.8624C295.53 34.9411 299.787 37.674 303.585 40.9757C307.057 43.7829 310.415 46.7524 313.611 49.8679C319.773 55.8722 325.417 62.3859 330.483 69.3399C351.395 97.8988 362.929 132.38 369.5 166.862C373.211 186.197 375.537 205.773 376.459 225.44C377.482 247.184 376.346 269.252 370.765 290.347C362.053 323.417 341.855 352.884 315.201 374.109C287.955 395.96 254.223 408.141 219.305 408.737C183.241 409.123 147.998 397.968 118.721 376.9C111.631 371.764 104.978 366.049 98.8318 359.813C98.1017 359.067 96.9499 360.219 97.6961 360.965C123.536 386.8 157.063 403.546 193.235 408.688C228.248 413.849 263.983 407.209 294.808 389.816C324.73 372.797 348.633 346.909 363.221 315.725C380.888 277.414 380.191 234.219 375.097 193.182C370.684 157.678 362.216 121.914 345.246 90.1749C337.076 74.6342 326.522 60.4697 313.968 48.1966C307.478 42.0467 300.292 35.2152 292.066 31.7103C283.468 27.9619 275 30.2012 267.456 35.1828C259.912 40.1644 253.131 46.8335 245.279 51.7015C237.594 56.4558 229.439 60.4037 220.944 63.4821C203.974 69.778 186.161 73.3154 168.429 76.723C150.697 80.1306 132.414 83.4409 114.99 89.0391C98.0393 94.3007 82.1897 102.609 68.2186 113.558C40.5094 135.691 21.6255 167.852 12.427 201.847C1.2492 243.192 4.42896 287.264 14.6658 328.415C17.2777 338.962 20.3763 349.396 23.8481 359.7C24.1888 360.689 25.7462 360.268 25.4704 359.261H25.5029Z" fill="white"/>
<path d="M26.2978 365.249C14.536 325.559 8.32256 283.321 14.6983 242.105C19.9546 208.191 34.2796 175.446 57.8357 150.23C69.1333 137.999 82.6128 127.984 97.5826 120.697C113.076 113.282 129.915 109.193 146.739 106.093C179.834 100.106 215.071 98.2557 245.262 81.9966C253.017 77.8264 259.685 72.2606 266.937 67.3926C270.576 64.6878 274.693 62.6948 279.072 61.5186C283.923 60.4888 288.984 61.3046 293.267 63.8066C300.876 67.9769 307.511 74.6784 313.4 80.9743C319.018 86.9867 324.12 93.4624 328.65 100.333C347.404 128.583 356.992 161.994 361.923 195.307C364.734 214.012 366.187 232.895 366.271 251.809C366.271 272.481 364.308 293.3 358.16 313.08C348.426 344.122 327.871 371.367 301.622 390.4C274.824 409.974 242.323 420.166 209.15 419.397C174.77 418.378 141.613 406.412 114.503 385.24C108.005 380.122 101.934 374.484 96.3496 368.381C95.6358 367.618 94.5002 368.754 95.1978 369.533C118.85 394.995 150.087 412.142 184.263 418.424C217.395 424.69 251.668 419.806 281.732 404.534C310.993 389.517 334.886 365.806 350.129 336.658C368.526 300.959 369.694 260.068 366.466 220.897C363.643 186.61 356.975 151.95 342.034 120.762C334.885 105.534 325.398 91.518 313.919 79.2219C308.095 73.072 301.573 66.5489 294.078 62.4435C290.309 60.251 285.969 59.2393 281.619 59.539C277.499 60.0132 273.533 61.387 270.003 63.5632C262.167 68.0742 255.402 74.3052 247.663 78.8649C240.08 83.2292 232.06 86.7862 223.734 89.4772C207.105 94.9618 189.666 97.7365 172.469 100.398C155.272 103.059 137.411 105.606 120.376 110.491C103.896 115.046 88.4058 122.623 74.6917 132.835C48.0045 153.086 29.2667 182.699 19.3543 214.504C7.2356 253.594 8.74429 295.783 17.0506 335.473C19.1758 345.647 21.7716 355.724 24.7242 365.687C24.7801 365.902 24.9192 366.087 25.1109 366.199C25.3026 366.312 25.5311 366.344 25.7463 366.288C25.9614 366.232 26.1454 366.093 26.258 365.901C26.3706 365.709 26.4025 365.481 26.3465 365.265L26.2978 365.249Z" fill="white"/>
<path d="M27.1252 371.221C17.3913 332.942 13.1732 292.505 20.7981 253.464C27.0603 221.335 41.8883 190.667 65.2822 167.463C76.3106 156.397 89.2628 147.434 103.504 141.013C118.867 134.198 135.512 130.855 152.06 128.535C184.263 124.04 218.429 123.667 248.118 108.868C255.759 105.039 262.378 99.7812 269.678 95.4324C273.352 93.0052 277.519 91.4254 281.878 90.8078C286.619 90.51 291.314 91.8821 295.149 94.6859C301.914 99.2456 307.787 105.655 312.994 111.854C318.13 117.949 322.748 124.462 326.8 131.326C343.51 159.447 351.135 192.159 354.38 224.434C356.185 242.169 356.727 260.009 356.002 277.82C355.158 297.389 352.271 317.007 345.473 335.441C334.717 364.649 313.854 389.589 287.962 406.53C261.591 423.912 230.241 432.144 198.734 429.961C166.186 427.486 135.259 414.755 110.399 393.597C104.448 388.486 98.9145 382.908 93.8512 376.916C93.1699 376.121 92.0342 377.273 92.6994 378.068C114.187 403.124 143.14 420.629 175.308 428.014C206.544 435.388 239.34 432.245 268.608 419.073C297.378 406 321.363 384.29 337.232 356.957C356.083 324.115 359.036 285.56 357.673 248.547C356.456 215.526 351.605 182.018 338.708 151.317C332.577 136.423 324.176 122.569 313.805 110.247C308.635 103.828 302.634 98.1261 295.96 93.2905C292.568 90.8606 288.57 89.4172 284.409 89.1202C280.425 89.0831 276.49 90.007 272.939 91.8138C265.022 95.5622 258.338 101.55 250.632 105.72C243.161 109.729 235.28 112.923 227.125 115.245C210.593 120.113 193.413 122.077 176.362 123.991C159.312 125.906 142.505 127.642 126.07 131.748C110.234 135.535 95.2379 142.231 81.846 151.495C55.6456 169.929 36.6482 197.595 26.1194 227.647C13.1408 264.417 13.1408 304.578 19.5003 342.645C21.1226 352.381 23.2154 362.117 25.6327 371.626C25.6604 371.733 25.7087 371.833 25.7751 371.921C25.8414 372.008 25.9245 372.082 26.0194 372.138C26.1143 372.194 26.2193 372.23 26.3283 372.246C26.4373 372.261 26.5482 372.254 26.6548 372.227C26.7613 372.199 26.8612 372.151 26.949 372.084C27.0369 372.018 27.1108 371.935 27.1665 371.84C27.2222 371.745 27.2588 371.64 27.2739 371.531C27.2891 371.422 27.2827 371.311 27.255 371.204L27.1252 371.221Z" fill="white"/>
<path d="M27.9689 377.192C20.4738 340.779 18.0727 302.549 26.5575 266.104C33.5983 235.858 48.6048 207.348 71.3335 185.961C82.1879 175.645 94.8326 167.397 108.647 161.621C123.637 155.439 139.763 152.729 155.808 151.139C187.135 148.055 220.165 149.354 249.562 136.535C257.138 133.208 263.757 128.421 270.992 124.527C274.745 122.252 278.98 120.89 283.355 120.551C287.668 120.555 291.855 122.007 295.246 124.673C301.735 129.395 307.219 136.031 312.07 142.311C316.68 148.35 320.782 154.759 324.334 161.475C339.097 189.206 344.922 220.978 346.544 252.084C347.48 268.996 347.214 285.952 345.749 302.825C344.127 321.064 340.557 339.303 333.5 356.26C322.031 383.845 301.054 406.952 275.421 422.124C249.506 437.608 219.217 444.131 189.227 440.687C158.393 436.965 129.521 423.597 106.733 402.489C101.195 397.34 96.0887 391.745 91.4664 385.76C90.8337 384.948 89.4386 385.76 90.0713 386.587C109.268 411.15 135.751 428.998 165.72 437.571C195.437 446.284 227.21 444.845 256.018 433.482C283.902 422.332 307.664 402.843 324.059 377.679C343.526 347.465 348.231 311.149 348.637 275.986C348.994 244.036 345.911 211.356 334.863 181.19C329.68 166.697 322.292 153.091 312.962 140.851C308.281 134.44 302.784 128.669 296.609 123.683C293.541 121.2 289.857 119.597 285.95 119.042C281.96 118.713 277.953 119.423 274.318 121.103C266.628 124.348 260.009 129.719 252.514 133.387C245.082 136.927 237.287 139.647 229.266 141.5C213.043 145.443 196.252 146.563 179.623 147.682C162.995 148.802 146.479 149.84 130.256 153.329C114.985 156.534 100.455 162.59 87.4269 171.178C62.1998 187.973 43.4134 213.514 32.414 241.553C18.8839 276.116 17.2616 314.362 21.8689 350.856C23.0208 359.878 24.5457 368.835 26.3789 377.744C26.5898 378.766 28.1473 378.328 28.0013 377.306L27.9689 377.192Z" fill="white"/>
<path d="M28.7475 383.163C23.3938 348.812 22.8098 313.081 31.9921 279.313C39.7792 250.575 55.0615 223.818 77.5144 204.07C88.2109 194.538 100.545 187.023 113.919 181.888C128.52 176.371 144.176 174.326 159.717 173.483C190.428 171.86 222.761 174.959 252.011 163.519C259.344 160.647 265.866 156.363 272.955 153.021C276.822 150.972 281.155 149.966 285.528 150.1C289.734 150.627 293.653 152.513 296.69 155.471C302.191 160.592 307.05 166.363 311.161 172.655C315.241 178.639 318.828 184.945 321.885 191.51C334.636 218.836 338.611 249.423 338.611 279.248C338.715 295.575 337.63 311.888 335.366 328.058C332.9 345.128 328.65 362.134 321.171 377.711C308.562 403.298 288.15 424.215 262.881 437.442C237.231 451.128 207.765 455.911 179.104 451.039C150.046 445.917 123.323 431.816 102.693 410.716C97.7029 405.579 93.1398 400.044 89.0491 394.165C88.4488 393.321 87.0374 394.165 87.6377 394.993C104.816 419.291 129.231 437.539 157.397 447.129C185.316 456.829 215.667 456.966 243.672 447.518C270.892 438.19 294.554 420.657 311.404 397.329C331.18 369.744 337.362 335.668 339.535 302.484C341.466 271.881 340.136 240.434 331.083 210.95C326.813 196.646 320.338 183.096 311.891 170.789C307.778 164.582 302.9 158.917 297.371 153.929C294.656 151.428 291.31 149.716 287.693 148.978C284.076 148.241 280.326 148.505 276.849 149.743C269.143 152.307 262.475 157.305 255.077 160.55C247.702 163.721 239.998 166.061 232.105 167.527C216.028 170.643 199.562 170.87 183.225 171.178C166.888 171.487 150.778 171.746 134.766 174.618C120.123 177.173 106.096 182.481 93.4294 190.261C68.7052 205.579 49.7727 229.513 38.3678 256.093C24.5943 288.189 21.4956 323.92 24.2374 358.45C24.9187 366.888 25.8597 375.277 27.2387 383.634C27.4009 384.656 28.9746 384.218 28.861 383.196L28.7475 383.163Z" fill="white"/>
<path d="M29.6722 389.362C26.4276 357.087 27.4821 323.871 37.216 292.716C45.6845 265.601 61.0966 240.645 83.1115 222.455C93.6497 213.652 105.676 206.805 118.624 202.236C132.965 197.271 148.134 195.843 163.205 195.746C193.478 195.47 225.113 200.614 254.445 190.748C261.859 188.249 268.51 184.111 275.827 181.434C279.748 179.752 284.087 179.3 288.27 180.136C291.938 181.256 295.22 183.381 297.744 186.269C307.478 196.46 314.714 209.636 319.792 222.714C330.24 249.667 332.251 279.248 330.58 307.888C329.74 323.404 327.771 338.839 324.691 354.069C321.659 369.935 316.25 385.252 308.647 399.504C295.108 423.34 274.31 442.226 249.286 453.409C224.057 464.922 195.723 467.741 168.721 461.425C141.58 454.944 117.117 440.204 98.702 419.235C94.2302 414.088 90.1777 408.592 86.5833 402.798C86.0317 401.921 84.6364 402.798 85.188 403.625C100.222 427.471 122.349 446.005 148.459 456.621C174.328 467.373 203.019 469.3 230.094 462.106C256.911 454.832 280.778 439.341 298.345 417.807C318.299 393.078 326.313 361.971 330.158 330.978C333.792 301.592 334.425 271.232 327.563 242.251C324.38 228.242 319.038 214.814 311.729 202.447C308.172 196.339 303.968 190.632 299.188 185.425C294.159 180.103 287.978 177.101 280.548 178.48C272.436 179.99 265.477 184.971 257.933 187.859C250.649 190.63 243.072 192.557 235.35 193.604C219.532 195.875 203.439 195.226 187.524 194.675C171.609 194.123 155.645 193.555 139.844 195.729C125.655 197.622 111.962 202.227 99.5131 209.295C75.4703 222.99 56.5054 244.993 44.5651 269.804C30.3861 299.32 25.7463 332.601 26.5574 365.087C26.7683 373.2 27.3199 381.314 28.1797 389.427C28.2933 390.449 29.9156 390.465 29.8021 389.427L29.6722 389.362Z" fill="white"/>
<path d="M30.5159 395.333C29.2019 364.746 31.9922 333.542 42.6509 304.643C52.109 278.988 68.1699 255.671 90.2659 239.314C100.713 231.494 112.453 225.573 124.951 221.822C138.903 217.733 153.488 217.1 167.926 217.749C197.031 219.079 227.109 225.862 255.872 218.219C263.157 216.272 269.792 212.751 276.963 210.496C280.682 209.118 284.716 208.826 288.595 209.652C292.156 210.799 295.3 212.972 297.631 215.899C302.077 221.191 305.888 226.986 308.987 233.164C312.199 239.322 314.875 245.744 316.985 252.36C325.551 278.972 325.73 307.661 322.436 335.197C318.867 364.86 312.345 395.999 295.928 421.426C281.241 443.647 259.755 460.515 234.685 469.505C209.911 478.576 182.841 479.232 157.657 471.372C132.529 463.41 110.446 447.931 94.3867 427.024C90.5896 422.034 87.1782 416.761 84.1822 411.252C83.6955 410.327 82.2842 411.138 82.7871 412.063C95.6454 435.381 115.407 454.143 139.357 465.773C163.181 477.552 190.192 481.249 216.304 476.304C242.578 471.159 266.562 457.861 284.847 438.302C305.564 415.974 315.201 386.717 320.684 357.298C325.908 329.161 328.325 299.921 323.377 271.556C321.106 257.785 316.682 244.457 310.269 232.061C307.132 225.867 303.288 220.057 298.815 214.747C294.224 209.489 288.351 206.634 281.31 207.802C273.653 208.97 266.71 213.173 259.458 215.51C252.137 217.79 244.574 219.2 236.924 219.712C221.69 220.864 206.424 219.323 191.272 217.927C176.119 216.532 160.448 215.071 144.906 216.483C131.416 217.693 118.279 221.46 106.197 227.582C82.6086 239.541 63.4328 259.646 50.8273 282.753C35.9182 310.079 29.7372 341.396 28.7963 372.275C28.5529 379.951 28.634 387.642 28.9585 395.317C28.9585 396.356 30.5808 396.356 30.5808 395.317L30.5159 395.333Z" fill="white"/>
<path d="M31.3594 401.305C31.9597 372.097 36.4535 342.564 48.2964 315.709C58.9064 291.629 75.6326 270.275 97.8259 255.817C108.29 248.943 119.883 243.967 132.073 241.115C145.749 238 159.831 238.276 173.686 239.801C201.444 242.835 229.737 251.16 257.722 245.594C264.828 244.166 271.382 241.196 278.39 239.46C282.021 238.374 285.886 238.34 289.536 239.363C292.973 240.703 295.921 243.057 297.988 246.113C305.97 256.725 311.112 269.869 314.211 282.672C320.798 309.348 318.883 337.567 313.659 364.308C308.241 392.104 300.016 420.972 282.576 443.819C266.931 463.874 245.247 478.36 220.733 485.132C196.505 491.984 170.699 490.695 147.274 481.464C124.112 472.233 104.283 456.207 90.3957 435.494C87.0695 430.49 84.13 425.239 81.6027 419.787C81.1647 418.83 79.7533 419.657 80.1913 420.598C90.9411 443.371 108.385 462.319 130.191 474.909C152.132 487.803 177.671 493.208 202.952 490.308C228.329 487.223 252.104 476.272 270.944 458.991C292.147 439.405 303.471 412.566 310.642 385.111C317.715 358.012 322.112 329.518 319.175 301.495C317.885 287.991 314.468 274.776 309.052 262.34C306.395 256.105 303.02 250.202 298.994 244.75C294.824 239.363 289.26 236.377 282.332 237.091C275.064 237.854 268.348 241.326 261.242 243.111C254.118 244.84 246.817 245.733 239.487 245.772C224.627 245.967 209.88 243.501 195.246 241.196C180.613 238.892 166.255 236.685 151.606 237.091C138.553 237.422 125.683 240.247 113.692 245.415C90.0874 255.59 70.3438 274.007 56.911 295.718C41.3529 320.788 33.7442 350.012 30.9538 379.188C30.24 386.522 29.8507 393.889 29.7047 401.256C29.7047 401.471 29.7901 401.678 29.9423 401.83C30.0944 401.982 30.3007 402.067 30.5159 402.067C30.731 402.067 30.9373 401.982 31.0894 401.83C31.2415 401.678 31.327 401.471 31.327 401.256L31.3594 401.305Z" fill="white"/>
<path d="M32.2031 407.276C34.669 379.691 40.8176 352.106 53.569 327.376C65.2173 304.789 82.5599 285.187 104.786 272.611C115.442 266.501 127.107 262.351 139.228 260.36C152.709 258.234 166.401 259.484 179.786 261.902C205.986 266.77 232.43 276.392 259.425 272.968C265.915 272.124 272.128 270.015 278.552 268.684C282.097 267.776 285.813 267.776 289.357 268.684C292.742 269.87 295.632 272.155 297.566 275.175C301.225 280.728 304.159 286.726 306.294 293.024C308.544 299.218 310.244 305.598 311.372 312.091C316.109 338.686 312.134 366.255 305.077 392.088C297.923 418.229 288.043 445.214 269.597 465.627C253.096 483.592 231.275 495.796 207.333 500.45C183.611 505.2 158.985 502.018 137.248 491.395C116.115 481.013 98.5389 464.59 86.7455 444.208C83.8757 439.184 81.3918 433.95 79.3152 428.549C78.9421 427.576 77.3847 427.998 77.6929 428.971C86.362 451.235 101.529 470.373 121.22 483.898C141.033 497.721 164.755 504.824 188.903 504.166C213.526 503.296 237.256 494.72 256.748 479.647C278.455 462.755 291.401 438.383 300.259 412.826C309.279 386.766 315.72 359.034 314.86 331.303C314.577 317.753 312.062 304.343 307.414 291.613C305.272 285.422 302.344 279.532 298.702 274.088C297.047 271.56 294.752 269.517 292.05 268.166C289.348 266.815 286.337 266.204 283.322 266.396C276.443 266.737 269.922 269.528 263.189 270.745C256.303 271.934 249.301 272.315 242.326 271.881C227.936 271.118 213.87 267.727 199.886 264.53C186.21 261.415 172.42 258.316 158.355 257.731C145.572 257.172 132.802 259.118 120.765 263.459C97.3392 271.913 77.2062 288.481 62.8974 308.716C46.5606 331.839 37.4756 359.375 33.0142 387.139C31.9435 393.824 31.1323 400.542 30.532 407.276C30.4347 408.315 32.057 408.315 32.1544 407.276H32.2031Z" fill="white"/>
<path d="M33.0142 413.556C37.2647 387.707 44.9058 362.085 58.4197 339.497C71.2361 318.046 89.5521 299.921 112.232 289.195C123.265 283.853 135.2 280.623 147.42 279.67C160.172 278.761 172.81 280.871 185.123 284.051C209.328 290.298 233.241 301.056 258.695 300.537C264.871 300.237 271.012 299.44 277.06 298.152C283.549 296.984 290.59 296.643 295.408 301.981C299.707 306.752 301.898 313.746 303.909 319.831C305.907 326.048 307.33 332.436 308.16 338.913C311.404 365.606 305.645 392.737 296.804 417.824C288.092 442.472 276.671 467.704 257.576 486.105C240.25 502.474 218.083 512.78 194.403 515.476C171.363 518.206 148.062 513.347 128.034 501.634C108.444 490.11 92.7187 473.026 82.8519 452.549C80.4546 447.536 78.4531 442.344 76.8655 437.02C76.8096 436.805 76.6705 436.62 76.4788 436.508C76.2872 436.395 76.0587 436.363 75.8435 436.419C75.6284 436.475 75.4443 436.614 75.3317 436.806C75.2191 436.998 75.1872 437.226 75.2432 437.442C82.0175 459.543 95.3055 479.083 113.368 493.505C131.408 508.174 153.66 516.701 176.882 517.845C200.744 518.789 224.297 512.186 244.192 498.973C266.174 484.255 280.337 461.782 290.655 437.88C301.46 412.826 309.798 385.954 310.626 358.369C311.146 344.983 309.363 331.607 305.353 318.825C303.471 313.064 301.281 306.703 297.517 301.852C293.754 297 288.4 295.361 282.462 295.653C275.973 296.059 269.484 298.071 262.994 298.558C256.496 298.994 249.969 298.733 243.527 297.779C230.37 295.913 217.569 291.856 204.964 287.945C192.359 284.035 179.85 280.254 166.823 278.55C154.451 276.896 141.876 277.673 129.802 280.838C105.84 287.199 84.5067 302.274 68.9973 321.405C52.1089 342.305 41.5963 367.618 35.3828 393.597C33.8416 400.007 32.56 406.481 31.4892 412.988C31.327 414.01 32.8844 414.448 33.1116 413.426L33.0142 413.556Z" fill="white"/>
<path d="M33.8579 419.446C39.8767 395.106 49.0753 371.221 63.5464 350.597C77.7741 330.329 97.323 313.73 120.668 305.032C132.02 300.723 144.09 298.62 156.23 298.833C168.316 299.142 180.094 302.209 191.466 306.168C213.789 313.941 235.48 325.64 259.425 327.441C265.333 327.771 271.259 327.549 277.125 326.776C283.127 326.111 290.103 325.624 294.743 330.265C299.075 334.581 300.778 341.623 302.287 347.27C303.944 353.59 304.977 360.058 305.369 366.58C306.992 392.981 299.351 419.252 288.789 443.17C278.634 466.147 265.898 489.448 246.495 505.934C228.48 520.88 206.045 529.474 182.657 530.388C160.013 531.425 137.657 524.988 119.03 512.068C100.843 499.378 86.865 481.538 78.8934 460.84C76.9979 455.857 75.4848 450.736 74.3672 445.523C74.1401 444.5 72.5827 444.938 72.7449 445.944C77.6173 467.846 88.9886 487.766 105.37 503.095C121.781 518.683 142.757 528.596 165.217 531.378C188.623 534.094 212.283 529.231 232.722 517.504C254.899 504.653 270.035 483.72 281.732 461.36C294.013 437.815 303.99 412.29 306.57 385.679C307.952 372.636 307.018 359.452 303.812 346.735C302.336 341.104 300.567 334.759 296.885 330.167C293.202 325.575 287.556 324.439 281.959 324.65C275.778 324.861 269.743 326.046 263.53 325.916C257.318 325.728 251.143 324.902 245.1 323.449C232.965 320.626 221.366 315.92 209.831 311.328C198.296 306.736 186.47 302.063 174.14 299.385C162.287 296.733 150.031 296.424 138.06 298.477C113.725 302.712 91.2556 316.196 74.497 334.175C57.0571 352.933 45.2953 376.267 37.3946 400.494C35.4153 406.546 33.6956 412.68 32.1706 418.878C32.1147 419.094 32.1466 419.322 32.2592 419.514C32.3717 419.706 32.5557 419.845 32.7709 419.901C32.986 419.957 33.2146 419.925 33.4063 419.812C33.598 419.7 33.737 419.515 33.793 419.3L33.8579 419.446Z" fill="white"/>
<path d="M34.6852 425.418C42.4561 402.473 53.2121 380.194 68.7539 361.468C84.2957 342.743 104.315 328.317 127.628 321.583C138.993 318.238 150.889 317.076 162.686 318.16C174.399 319.328 185.642 323.19 196.349 327.896C216.791 336.901 236.194 349.526 258.371 353.858C263.71 354.927 269.149 355.417 274.594 355.318C280.012 355.205 285.95 354.491 291.061 356.746C297.225 359.473 299.059 366.272 300.454 372.275C301.927 378.562 302.754 384.984 302.92 391.439C303.585 417.239 294.646 442.439 282.852 465.043C271.382 487.03 257.219 509.261 237.427 524.627C218.938 538.634 196.275 546.013 173.085 545.576C150.491 545.319 128.638 537.479 111.032 523.313C94.0941 509.579 81.6852 491.061 75.4217 470.171C73.8824 464.99 72.7594 459.694 72.0635 454.334C71.9337 453.311 70.3114 453.295 70.4412 454.334C73.3884 476.209 82.923 496.669 97.7772 512.993C112.873 529.832 133.088 541.235 155.305 545.446C178.277 549.631 201.986 546.213 222.842 535.71C245.392 524.238 261.486 504.231 274.497 483.039C288.205 460.711 299.805 436.143 303.471 410.019C305.362 397.456 304.939 384.653 302.222 372.243C300.989 366.856 299.464 360.754 294.905 357.152C290.622 353.777 284.896 353.517 279.672 353.631C273.762 353.916 267.839 353.671 261.972 352.901C256.247 351.997 250.616 350.574 245.149 348.649C233.793 344.69 223.183 339.173 212.475 333.867C201.768 328.561 191.385 323.53 180.029 320.139C168.696 316.686 156.795 315.495 145.003 316.634C120.847 319.036 98.053 330.476 80.3211 346.848C62.1673 363.627 49.0428 385.127 39.536 407.796C37.1674 413.475 35.0043 419.23 33.0467 425.061C32.706 426.051 34.2797 426.472 34.669 425.483L34.6852 425.418Z" fill="white"/>
<path d="M35.4476 431.6C44.9544 409.921 57.284 389.184 73.929 372.21C90.5741 355.237 111.648 342.532 135.156 337.875C146.843 335.479 158.886 335.402 170.603 337.648C181.424 340.041 191.818 344.069 201.427 349.591C220.068 359.765 237.313 373.135 257.689 379.837C262.572 381.457 267.605 382.582 272.712 383.196C278.098 383.829 283.695 383.456 288.935 384.997C295.279 386.831 298.101 391.877 299.351 397.978C300.556 404.128 301.1 410.39 300.973 416.655C300.567 441.936 290.363 466.082 277.368 487.371C270.839 498.074 263.552 508.296 255.564 517.958C247.837 527.554 238.887 536.097 228.942 543.369C209.788 556.654 186.639 562.923 163.4 561.121C140.744 559.536 119.317 550.229 102.693 534.753C86.7828 519.778 75.858 500.275 71.3982 478.884C70.3146 473.607 69.6582 468.251 69.4353 462.869C69.4353 461.83 67.813 461.83 67.813 462.869C68.86 484.849 76.6674 505.971 90.1685 523.346C103.998 541.405 123.511 554.274 145.555 559.872C168.186 565.532 192.057 563.511 213.416 554.127C236.226 543.97 253.244 524.92 267.602 505.091C282.576 484.353 295.538 461.1 300.551 435.77C303.037 423.641 303.235 411.154 301.135 398.952C300.194 393.711 298.458 388.405 293.721 385.419C289.308 382.628 283.76 382.401 278.698 382.174C267.378 381.456 256.307 378.534 246.106 373.573C236.094 368.486 226.358 362.875 216.937 356.763C207.561 350.761 197.72 345.52 187.508 341.088C176.759 336.675 165.253 334.404 153.634 334.402C129.64 334.402 106.083 343.716 87.2159 358.288C67.9589 373.152 53.1472 393.094 41.9207 414.513C39.1303 419.836 36.5508 425.272 34.1336 430.74C33.7118 431.681 35.1069 432.509 35.5287 431.567L35.4476 431.6Z" fill="white"/>
</g>
<defs>
<clipPath id="clip0_207_31">
<rect width="389" height="563" fill="white" transform="translate(0 0.00341797)"/>
</clipPath>
</defs>
</svg>
